<svg width="120" height="120" viewBox="0 0 120 120" fill="none" xmlns="http://www.w3.org/2000/svg">
    <g id="styledComponents">
        <path d="M68.7673 118.274C68.9473 117.867 69.4015 117.584 69.7315 117.241C74.7666 111.962 79.8446 106.729 84.8111 101.386C86.3653 99.9505 87.5662 98.175 88.32 96.1983C89.0739 94.2215 89.3601 92.0972 89.1563 89.9915C89.0004 89.0898 88.7958 88.1971 88.5435 87.3175C87.1894 88.6031 85.9296 89.7729 84.6611 90.9514C82.6899 92.7854 80.7273 94.6281 78.739 96.4407C77.5665 97.6361 76.059 98.4478 74.4156 98.7683C72.7721 99.0889 71.0701 98.9034 69.5344 98.2362C67.9797 97.6651 66.627 96.6499 65.6443 95.3167C64.6616 93.9836 64.092 92.3911 64.0064 90.7371C63.9604 90.5243 63.8988 90.3152 63.8222 90.1115C62.3095 91.397 60.8611 92.5797 59.4256 93.7967L29.5877 119.079C29.382 119.255 29.1591 119.474 28.9663 119.645H68.7459L68.6859 119.607C68.4716 119.457 68.583 118.668 68.7673 118.274Z" fill="#FFCEBF"/>
        <path d="M27.1434 118.273C27.4972 117.812 27.9243 117.413 28.4075 117.09L69.6997 82.0589C72.5165 79.6677 75.3205 77.2637 78.1116 74.8469C78.4565 74.6064 78.7267 74.2738 78.8915 73.887C79.5591 70.9777 79.6537 67.9663 79.17 65.0209C78.7415 65.3209 78.5101 65.4494 78.313 65.6594C74.932 68.6847 71.5681 71.7358 68.1699 74.744C67.0442 75.877 65.5882 76.6239 64.0113 76.8772C62.4344 77.1305 60.8177 76.8773 59.3938 76.1539C57.9411 75.4681 56.7253 74.3655 55.9012 72.9866C55.077 71.6077 54.6818 70.0147 54.7658 68.4105V67.0221C54.1444 67.4763 53.6902 67.7806 53.266 68.1234C36.7394 81.3561 20.2156 94.5788 3.69472 107.792C2.94909 108.387 2.05777 109.716 1.08074 108.426C0.103713 107.136 1.59068 106.605 2.34059 106.005C19.9528 91.872 37.5736 77.7522 55.2029 63.6453C58.074 61.3442 58.2625 60.38 56.3942 56.7247L55.28 57.7703C52.2247 60.6114 49.135 63.4139 46.1268 66.3022C44.8929 67.4924 43.3474 68.3094 41.6689 68.6587C39.9904 69.0081 38.2473 68.8756 36.6409 68.2765C35.0345 67.6774 33.6304 66.6362 32.5905 65.273C31.5507 63.9099 30.9176 62.2805 30.7644 60.5728C30.1944 61.0014 29.7016 61.3142 29.2345 61.6784L3.09479 81.9389C2.64395 82.3811 2.1298 82.7537 1.56925 83.0445C1.14619 83.1723 0.69189 83.1496 0.283691 82.9802V119.666H27.0919C26.9923 119.446 26.945 119.205 26.954 118.963C26.9629 118.722 27.0277 118.486 27.1434 118.273Z" fill="#FFCEBF"/>
        <path d="M99.5652 1.81559C98.8367 4.20245 98.1297 6.5936 97.4912 9.00617C96.9014 10.7111 96.97 12.5748 97.6836 14.2318C98.3971 15.8887 99.704 17.2192 101.348 17.9622C106.376 20.6054 112.042 21.7926 117.709 21.3904V2.22269C117.646 1.80244 117.669 1.37377 117.777 0.962836C117.897 0.730389 118.049 0.515545 118.227 0.324341H99.5481C99.8352 0.658587 99.7366 1.24566 99.5652 1.81559Z" fill="#FF6196"/>
        <path d="M62.0512 42.9922C61.9624 45.1316 61.214 47.1912 59.9086 48.8886C55.2421 54.9126 49.883 60.3666 43.9419 65.1381C42.9839 66.025 41.7695 66.5856 40.4731 66.7396C39.1767 66.8936 37.8648 66.633 36.7256 65.9952C35.5918 65.5108 34.6358 64.6872 33.989 63.6375C33.3421 62.5878 33.0362 61.3636 33.1132 60.133C33.2505 58.6217 33.878 57.1966 34.9002 56.0749C41.5437 49.7402 48.7416 44.0136 56.4076 38.9641C56.9097 38.5704 57.5228 38.3445 58.1603 38.3184C58.7978 38.2922 59.4274 38.4671 59.96 38.8184C60.6601 39.2531 61.2261 39.8732 61.5952 40.6099C61.9643 41.3466 62.1222 42.1712 62.0512 42.9922Z" fill="#FF87AF"/>
        <path d="M56.9126 68.9646C56.8131 68.0174 56.9347 67.06 57.2678 66.1678C57.6009 65.2755 58.1365 64.4727 58.8324 63.8224C65.3372 57.8227 72.3163 52.3584 79.7013 47.4829C79.9241 47.3415 80.1298 47.2001 80.3741 47.0544C81.0192 46.5887 81.8008 46.3507 82.5959 46.3778C83.3911 46.405 84.1546 46.6957 84.7664 47.2044C85.3584 47.7058 85.7772 48.3811 85.9634 49.1342C86.1496 49.8874 86.0936 50.6801 85.8034 51.3996C84.8691 54.5115 83.1448 57.3283 80.7983 59.5757C76.0329 64.2704 71.1753 68.8708 66.2286 73.3741C65.4836 74.1402 64.5051 74.6368 63.4469 74.7857C62.3888 74.9347 61.3111 74.7275 60.3836 74.1969C59.409 73.6904 58.5791 72.9445 57.9719 72.0293C57.3648 71.114 57.0002 70.0595 56.9126 68.9646Z" fill="#FF87AF"/>
        <path d="M87.8344 71.7961C86.6346 73.0817 85.4004 74.3073 84.2477 75.6228C83.9011 76.1313 83.6136 76.6776 83.3907 77.2512C84.0249 77.4397 84.7662 77.9368 85.2804 77.7611C87.8987 76.8827 90.4527 75.8285 93.3281 74.7186C92.7024 76.1585 92.231 77.4869 91.5668 78.7039C88.8305 83.3025 85.4038 87.4533 81.4066 91.011C79.8868 92.4765 78.3084 93.8778 76.6715 95.2148C75.8046 95.9342 74.7622 96.4104 73.6509 96.5947C72.5396 96.779 71.3992 96.6648 70.3465 96.2638C69.2938 95.8628 68.3665 95.1893 67.6595 94.3123C66.9525 93.4353 66.4912 92.3862 66.3227 91.2724C66.254 90.6531 66.3087 90.0263 66.4838 89.4283C66.6589 88.8303 66.9507 88.273 67.3426 87.7885C73.174 81.4561 79.8384 75.9449 87.1531 71.4062C87.242 71.3717 87.3363 71.3528 87.4316 71.3505L87.8344 71.7961Z" fill="#FF87AF"/>
        <path d="M97.6724 54.7281L105.004 22.1605L110.147 23.3647L107.494 31.4251C105.017 38.9243 102.51 46.4234 100.093 53.931C99.6221 55.3195 99.0051 55.5766 97.6724 54.7281Z" fill="#FF6196"/>
        <path d="M89.3857 73.8831C90.1614 70.9221 90.9327 68.1838 91.5841 65.4156C92.2189 62.731 93.4263 60.2153 95.1236 58.0407C96.1649 56.6738 97.3348 57.218 98.5304 57.5137C99.636 57.7836 99.9145 58.5935 99.9616 59.6563C100.136 62.5951 99.241 65.4978 97.4419 67.8282C95.3002 70.4833 92.5317 72.5641 89.3857 73.8831Z" fill="#FF6196"/>
        <path d="M119.944 3.83399C120.008 2.87961 119.983 1.92137 119.871 0.971474C119.783 0.706144 119.607 0.478249 119.374 0.324408C119.184 0.16973 118.961 0.0598812 118.723 0.00301735C118.585 -0.0226939 118.393 0.118717 118.208 0.320122C118.03 0.511327 117.878 0.726171 117.758 0.958619C117.65 1.36955 117.627 1.79822 117.69 2.21847V21.3819C112.023 21.7841 106.357 20.5969 101.329 17.9537C99.685 17.2107 98.3781 15.8802 97.6646 14.2233C96.951 12.5663 96.8824 10.7026 97.4722 8.99767C98.1107 6.58509 98.8178 4.19395 99.5462 1.80709C99.7177 1.23716 99.8162 0.650083 99.5462 0.315837C99.3961 0.153123 99.1888 0.0548412 98.9677 0.0415845C98.6847 0.0446377 98.4105 0.141042 98.1878 0.315837C97.8674 0.507517 97.6121 0.791222 97.4551 1.13003C96.598 3.70115 95.8438 6.29798 95.1882 8.92053C94.9407 9.95399 94.874 11.0225 94.9911 12.0787C95.1569 13.9898 95.8676 15.8132 97.0389 17.3324C98.2102 18.8515 99.7928 20.0027 101.599 20.6491C102.409 20.9877 102.884 21.3219 102.657 22.3889C102.344 23.7431 102.04 25.0972 101.732 26.4556C99.632 35.6602 97.5436 44.8691 95.4667 54.0823C95.4082 54.4931 95.2275 54.8768 94.9482 55.1836C93.5793 56.2717 92.4291 57.6094 91.5586 59.126C90.4493 61.1274 89.6817 63.2998 89.2875 65.5538C89.2118 66.2728 88.952 66.9601 88.5331 67.5494C88.1143 68.1387 87.5505 68.6099 86.8963 68.9177C85.1094 69.8219 83.4682 70.9917 81.4841 72.2087C81.6164 69.8228 81.5906 67.4307 81.407 65.0482C81.256 64.3153 81.288 63.5564 81.5003 62.8389C81.7126 62.1213 82.0985 61.4672 82.624 60.9344C85.2375 58.3452 87.1005 55.0961 88.0148 51.5326C88.2878 50.7066 88.3627 49.8279 88.2333 48.9675C88.104 48.1072 87.774 47.2894 87.27 46.5802C86.7661 45.871 86.1023 45.2903 85.3325 44.8852C84.5626 44.48 83.7081 44.2616 82.8382 44.2478C81.4298 44.2321 80.047 44.625 78.8573 45.3791C74.7683 48.1713 70.7504 51.0662 66.8073 54.0609C64.4633 55.8264 62.2564 57.7805 59.9852 59.6317C59.8873 59.5265 59.8025 59.41 59.7324 59.2846C59.689 58.9691 59.604 58.6607 59.4796 58.3675C57.5812 55.4364 58.8968 53.3067 60.958 51.117C63.1053 48.866 64.2919 45.8674 64.2661 42.7565C64.3327 41.1715 63.8363 39.6141 62.8649 38.3599C62.3474 37.7233 61.7096 37.1947 60.988 36.8044C59.9629 36.2433 58.7908 36.0092 57.6289 36.1333C56.467 36.2573 55.3708 36.7337 54.4873 37.4986L53.2917 38.3556C50.5621 40.3097 47.7981 42.2123 45.1713 44.3035C41.3364 47.3652 37.5841 50.5288 33.9183 53.7909C32.2042 55.3036 30.953 57.3691 29.1746 58.7746C19.9014 66.098 10.5297 73.2886 1.1922 80.5263C0.871132 80.7179 0.575909 80.9497 0.313735 81.2162C0.286745 81.2552 0.263774 81.2969 0.245172 81.3405C0.0480521 81.799 -0.119071 82.5575 0.112331 82.8361C0.169054 82.8965 0.23761 82.9446 0.313735 82.9775C0.721934 83.1469 1.17623 83.1696 1.5993 83.0417C2.15985 82.751 2.67399 82.3783 3.12483 81.9362L29.2646 61.6757C29.7317 61.3115 30.2245 60.9815 30.7944 60.5701C30.9476 62.2777 31.5807 63.9072 32.6206 65.2703C33.6604 66.6334 35.0646 67.6747 36.671 68.2737C38.2774 68.8728 40.0204 69.0054 41.6989 68.656C43.3774 68.3067 44.9229 67.4897 46.1569 66.2994C49.1565 63.4112 52.2547 60.6087 55.3101 57.7676L56.4242 56.722C58.2926 60.3773 58.104 61.3415 55.2329 63.6426C37.5893 77.7609 19.9585 91.8821 2.34064 106.006C1.59073 106.606 0.108046 107.15 1.08079 108.427C2.05353 109.704 2.94914 108.389 3.69476 107.793C20.2242 94.5918 36.7423 81.3734 53.2489 68.1378C53.6774 67.795 54.1273 67.4907 54.7487 67.0365V68.4249C54.6647 70.0291 55.0599 71.6221 55.8841 73.001C56.7082 74.38 57.924 75.4825 59.3767 76.1683C60.8007 76.8917 62.4173 77.1449 63.9942 76.8916C65.5711 76.6383 67.0271 75.8914 68.1528 74.7584C71.551 71.7588 74.9149 68.6992 78.2959 65.6738C78.5102 65.481 78.7587 65.3353 79.153 65.0353C79.6367 67.9807 79.542 70.9922 78.8744 73.9014C78.7096 74.2882 78.4394 74.6208 78.0945 74.8613C75.3005 77.2753 72.4966 79.6793 69.6826 82.0733L28.4075 117.109C27.9243 117.432 27.4972 117.831 27.1434 118.292C27.0305 118.502 26.9672 118.735 26.9582 118.974C26.9493 119.212 26.9951 119.449 27.092 119.667C27.2856 119.812 27.5094 119.912 27.7468 119.959C27.9842 120.006 28.2291 119.998 28.4633 119.937C28.648 119.884 28.8181 119.788 28.9603 119.659C29.1746 119.487 29.3889 119.269 29.5817 119.093L59.4196 93.8105C60.8551 92.5935 62.3035 91.3936 63.8162 90.1252C63.8928 90.329 63.9544 90.5381 64.0005 90.7508C64.0861 92.4049 64.6556 93.9973 65.6383 95.3305C66.6211 96.6636 67.9737 97.6788 69.5284 98.2499C71.0641 98.9171 72.7662 99.1026 74.4096 98.7821C76.053 98.4615 77.5606 97.6499 78.733 96.4544C80.7213 94.6418 82.684 92.7992 84.6552 90.9651C85.9407 89.7867 87.1834 88.6039 88.5376 87.3312C88.7898 88.2109 88.9944 89.1035 89.1503 90.0052C89.3473 92.104 89.0578 94.22 88.3042 96.1887C87.5506 98.1574 86.3532 99.9259 84.8051 101.357C79.8386 106.705 74.7606 111.937 69.7255 117.212C69.3955 117.555 68.9413 117.838 68.7613 118.245C68.5813 118.652 68.4657 119.449 68.6799 119.62L68.7399 119.659C69.1892 119.877 69.6945 119.954 70.1883 119.877C70.3267 119.849 70.45 119.771 70.5354 119.659C70.6554 119.535 70.7711 119.38 70.8868 119.265C74.9663 115.048 79.0672 110.853 83.1168 106.606C84.7513 104.95 86.288 103.2 87.7191 101.365C89.5851 99.2995 90.8224 96.7438 91.2855 93.9988C91.7486 91.2538 91.4181 88.4336 90.3331 85.87C90.2164 85.2984 90.3304 84.7038 90.6502 84.2159C90.9287 83.7359 91.2372 83.2689 91.5543 82.8061C92.569 81.4887 93.4141 80.049 94.0698 78.5209C95.3368 74.7704 97.2817 71.2844 99.8076 68.2364C100.969 66.7641 101.768 65.0395 102.14 63.2017C102.512 61.3638 102.447 59.4643 101.95 57.6562C101.775 56.9687 101.775 56.2482 101.95 55.5607C104.119 48.8458 106.351 42.1523 108.562 35.4545L111.519 26.4813L112.432 23.7088C114.377 23.7088 116.211 23.6702 118.037 23.7088C119.554 23.7516 120.017 23.0403 120 21.5662C119.91 15.6526 119.944 9.74329 119.944 3.83399ZM43.9371 65.1382C42.9791 66.025 41.7647 66.5856 40.4683 66.7396C39.1719 66.8936 37.86 66.633 36.7208 65.9952C35.587 65.5108 34.631 64.6872 33.9842 63.6375C33.3373 62.5878 33.0314 61.3636 33.1084 60.133C33.2457 58.6217 33.8732 57.1966 34.8953 56.0749C41.5388 49.7402 48.7368 44.0137 56.4028 38.9641C56.8212 38.6683 57.2972 38.4639 57.7998 38.3642C58.1369 38.302 58.4825 38.302 58.8196 38.3642C59.2234 38.4428 59.6086 38.5969 59.9552 38.8184C60.656 39.2534 61.2224 39.8742 61.5916 40.6118C61.9607 41.3493 62.1182 42.1748 62.0464 42.9965C61.9576 45.1359 61.2092 47.1955 59.9038 48.8929C55.237 54.9154 49.878 60.3679 43.9371 65.1382ZM66.2202 73.4043C65.4752 74.1704 64.4966 74.667 63.4385 74.816C62.3803 74.9649 61.3027 74.7577 60.3752 74.2271C59.3988 73.7195 58.5678 72.9716 57.9605 72.0539C57.3533 71.1363 56.9897 70.0791 56.9042 68.982C56.8047 68.0348 56.9263 67.0774 57.2594 66.1851C57.5925 65.2929 58.1281 64.49 58.8239 63.8397C65.3288 57.84 72.3078 52.3758 79.6929 47.5002C79.9157 47.3588 80.1214 47.2174 80.3657 47.0717C81.0107 46.606 81.7923 46.368 82.5875 46.3952C83.3826 46.4223 84.1462 46.7131 84.758 47.2217C85.35 47.7232 85.7688 48.3985 85.955 49.1516C86.1412 49.9047 86.0852 50.6974 85.795 51.4169C84.8607 54.5288 83.1364 57.3457 80.7899 59.5931C76.0633 64.3154 71.1482 68.862 66.2288 73.3872L66.2202 73.4043ZM91.5501 78.7223C88.8175 83.3136 85.3967 87.4585 81.407 91.0122C79.8872 92.4778 78.3088 93.879 76.6718 95.216C75.8049 95.9354 74.7625 96.4116 73.6512 96.5959C72.5399 96.7802 71.3996 96.666 70.3469 96.265C69.2942 95.864 68.3669 95.1905 67.6599 94.3135C66.9529 93.4365 66.4915 92.3874 66.323 91.2736C66.2543 90.6543 66.3091 90.0276 66.4842 89.4296C66.6592 88.8316 66.9511 88.2742 67.3429 87.7897C73.1743 81.4573 79.8387 75.9462 87.1534 71.4074C87.2424 71.3729 87.3366 71.3541 87.432 71.3517L87.8605 71.7802C86.6606 73.0658 85.4265 74.2914 84.2738 75.6069C83.9272 76.1154 83.6396 76.6617 83.4167 77.2353C84.0509 77.4238 84.7923 77.9209 85.3065 77.7452C87.3763 77.051 89.4117 76.2454 91.5929 75.3884L93.3541 74.7027C92.6942 76.1597 92.2228 77.4881 91.5586 78.7051L91.5501 78.7223ZM97.4336 67.8593C95.8352 69.8942 93.8317 71.5752 91.5501 72.7958C90.8444 73.1901 90.1202 73.5586 89.3775 73.9014C90.1402 70.9832 90.903 68.2792 91.5501 65.5452L91.5758 65.4338C92.2106 62.7493 93.418 60.2336 95.1153 58.059C96.1566 56.692 97.3265 57.2362 98.5221 57.5319C99.6277 57.8019 99.9062 58.6118 99.9533 59.6745C100.129 62.6108 99.2372 65.5117 97.4422 67.8421L97.4336 67.8593ZM107.461 31.435C104.984 38.9341 102.477 46.4332 100.06 53.9409C99.6062 55.3507 98.9892 55.6079 97.6565 54.7594L104.011 26.507L104.988 22.1704L110.131 23.3745L109.098 26.507L107.461 31.435Z" fill="#1F2626"/>
    </g>
    <g id="mongodb">
        <path d="M84.7407 47.7544C78.7204 19.869 66.1563 12.4436 62.9681 7.19463C61.2353 4.33931 59.4685 0 59.4685 0C59.2957 2.47333 58.9895 4.03976 56.9792 5.91949C52.9535 9.68719 35.8453 24.3238 34.4083 56.0098C33.0681 85.5523 55.0868 103.772 58.0132 105.655C60.2485 106.809 62.9865 105.677 64.2952 104.619C74.9067 96.9681 89.4235 76.5686 84.7276 47.7544" fill="#10AA50"/>
        <path d="M60.3802 89.9189C59.8279 97.2345 59.43 101.491 58.0244 105.663C58.0244 105.663 58.951 112.624 59.5949 120H61.8905C62.4385 114.805 63.2749 109.648 64.3955 104.556C61.422 103.025 60.4927 96.3358 60.3802 89.9189Z" fill="#B8C4C2"/>
        <path d="M64.3941 104.561C61.3891 103.104 60.5201 96.2809 60.3866 89.9189C61.127 79.43 61.341 68.9075 61.0279 58.395C60.8709 52.8795 61.1064 7.30163 59.7349 0.62915C60.2898 1.93452 61.6299 5.00144 62.9701 7.19171C66.1714 12.4434 78.725 19.8689 84.7401 47.757C89.428 76.497 74.9976 96.8607 64.3941 104.561Z" fill="#12924F"/>
    </g>
    <g id="postgresql">
        <path d="M117.889 71.8826C117.189 69.7638 115.357 68.2881 112.987 67.9339C111.869 67.7671 110.589 67.8382 109.075 68.1504C106.435 68.695 104.477 68.9024 103.048 68.9425C108.442 59.8342 112.829 49.4475 115.354 39.6702C119.438 23.8605 117.256 16.6581 114.706 13.4004C107.957 4.77748 98.1117 0.145172 86.2338 0.00343171C79.8974 -0.0740469 74.3349 1.177 71.4331 2.07667C68.7314 1.59995 65.8264 1.33378 62.7783 1.28456C57.0645 1.19341 52.016 2.43899 47.7023 4.99898C45.3141 4.19138 41.4812 3.0529 37.0549 2.32642C26.6445 0.617335 18.2541 1.94906 12.1168 6.28467C4.68528 11.5341 1.24022 20.6547 1.87736 33.3931C2.07972 37.4374 4.3421 49.7429 7.90429 61.413C9.95155 68.1208 12.1346 73.691 14.3929 77.9706C17.5955 84.039 21.0223 87.6126 24.8694 88.896C27.0255 89.6143 30.9432 90.1174 35.0637 86.6856C35.586 87.3182 36.2829 87.9467 37.2076 88.5305C38.3821 89.2711 39.8182 89.8763 41.2524 90.235C46.4212 91.5271 51.2627 91.2039 55.3932 89.3928C55.4187 90.1274 55.4383 90.8293 55.4547 91.4355C55.4821 92.4185 55.5094 93.3825 55.5454 94.284C55.7902 100.379 56.2049 105.119 57.4336 108.435C57.5011 108.617 57.5918 108.895 57.6875 109.19C58.3005 111.067 59.3255 114.209 61.9333 116.669C64.6337 119.218 67.9001 120 70.8917 120C72.392 120 73.8235 119.803 75.0791 119.534C79.5547 118.575 84.6377 117.114 88.3148 111.878C91.7913 106.928 93.4812 99.4736 93.787 87.7274C93.8267 87.3952 93.8631 87.078 93.8982 86.7758L93.9712 86.1551L94.7902 86.2271L95.0012 86.2412C99.5596 86.449 105.134 85.4824 108.557 83.8922C111.262 82.6371 119.93 78.0608 117.889 71.8826Z" fill="#1F2626"/>
        <path d="M110.095 73.0839C96.541 75.88 95.609 71.291 95.609 71.291C109.92 50.0559 115.902 23.1011 110.74 16.5041C96.6554 -1.49149 72.2747 7.01931 71.8678 7.23989L71.7369 7.26359C69.0589 6.70757 66.0623 6.37669 62.6938 6.32154C56.5612 6.22128 51.9088 7.92945 48.3785 10.6066C48.3785 10.6066 4.88568 -7.31104 6.90878 33.141C7.33902 41.7466 19.2434 98.2563 33.442 81.1878C38.6317 74.9462 43.6464 69.669 43.6464 69.669C46.1367 71.3234 49.1182 72.1674 52.2438 71.8643L52.4867 71.6583C52.4111 72.4331 52.4457 73.191 52.5838 74.0884C48.9259 78.1752 50.001 78.8926 42.6889 80.3979C35.2896 81.9229 39.6362 84.6374 42.4742 85.3474C45.9147 86.2075 53.874 87.4261 59.252 79.8975L59.0378 80.7566C60.4706 81.9047 61.477 88.2233 61.3083 93.9517C61.1397 99.6796 61.0271 103.612 62.156 106.684C63.2859 109.756 64.4111 116.667 74.0239 114.608C82.0557 112.887 86.2182 108.426 86.7974 100.985C87.2081 95.6958 88.1383 96.4779 88.1966 91.7485L88.9427 89.5099C89.8027 82.3394 89.0794 80.026 94.0275 81.1021L95.2307 81.2078C98.8722 81.3732 103.639 80.6217 106.437 79.3214C112.462 76.5258 116.035 71.8575 110.094 73.0839H110.095Z" fill="#336791"/>
        <path d="M50.9251 36.9892C49.7036 36.8192 48.5975 36.9765 48.0379 37.4003C47.7234 37.6387 47.6259 37.9149 47.5994 38.1049C47.5292 38.6085 47.882 39.1654 48.0989 39.4526C48.7124 40.2656 49.6084 40.8244 50.4953 40.9475C50.6238 40.9657 50.7519 40.9739 50.879 40.9739C52.358 40.9739 53.7029 39.8222 53.8214 38.9722C53.9695 37.9076 52.4241 37.1979 50.9251 36.9897" fill="white"/>
        <path d="M91.3863 37.0233C91.2696 36.1888 89.7848 35.9509 88.3756 36.1469C86.9682 36.3429 85.6037 36.9782 85.7176 37.8145C85.8088 38.4649 86.9832 39.5751 88.3733 39.5751C88.4909 39.5751 88.6094 39.5673 88.7288 39.5505C89.6567 39.422 90.3376 38.8327 90.6612 38.4931C91.1534 37.9754 91.4387 37.3984 91.3863 37.0233Z" fill="white"/>
        <path d="M114.606 72.7665C114.089 71.2037 112.426 70.701 109.662 71.2716C101.456 72.9652 98.5173 71.7921 97.5525 71.0815C103.931 61.3648 109.178 49.619 112.009 38.6604C113.349 33.4693 114.09 28.6483 114.151 24.7188C114.218 20.406 113.483 17.2366 111.968 15.3006C105.86 7.49576 96.8953 3.30918 86.0437 3.19433C78.5834 3.11047 72.2803 5.01963 71.0584 5.55651C68.4852 4.91663 65.68 4.52377 62.626 4.47364C57.0257 4.38294 52.1846 5.72378 48.1767 8.45695C46.4357 7.80886 41.9365 6.2643 36.4341 5.37786C26.9216 3.84652 19.3624 5.00687 13.9681 8.82839C7.53144 13.3887 4.55991 21.5403 5.13553 33.0564C5.32923 36.9308 7.53691 48.8497 11.0207 60.2642C15.6065 75.2877 20.5916 83.7926 25.8364 85.5422C26.4503 85.7469 27.1581 85.89 27.9388 85.89C29.8521 85.89 32.1979 85.0277 34.6385 82.0935C37.6153 78.5225 40.6946 75.0381 43.8726 71.6448C45.9344 72.7514 48.1995 73.3694 50.5161 73.4314C50.5207 73.492 50.5266 73.5526 50.5321 73.6128C50.1333 74.0883 49.7428 74.5707 49.3608 75.0598C47.7556 77.0975 47.4215 77.5218 42.2546 78.5856C40.7848 78.8891 36.8812 79.6935 36.8238 82.4299C36.7618 85.4196 41.4384 86.6752 41.9711 86.8083C43.8279 87.2732 45.6167 87.5024 47.3226 87.5024C51.4714 87.5024 55.1224 86.1388 58.0402 83.5004C57.9504 94.1588 58.3948 104.661 59.6745 107.861C60.7228 110.481 63.2832 116.883 71.3711 116.882C72.5579 116.882 73.8641 116.744 75.3011 116.436C83.7421 114.627 87.4078 110.896 88.8256 102.671C89.5845 98.2751 90.8866 87.7786 91.4991 82.1482C92.7916 82.5516 94.4556 82.7361 96.2545 82.7357C100.006 82.7357 104.335 81.9386 107.05 80.6784C110.1 79.2619 115.604 75.7863 114.606 72.7665ZM94.5044 34.7199C94.4766 36.3821 94.2478 37.8911 94.0053 39.4662C93.7442 41.1602 93.4743 42.9117 93.4064 45.0378C93.3394 47.1069 93.5979 49.2581 93.8476 51.3386C94.3526 55.5407 94.8708 59.8667 92.865 64.1353C92.5318 63.545 92.235 62.9348 91.9763 62.3082C91.727 61.7039 91.1855 60.7331 90.4358 59.3896C87.5194 54.1593 80.6899 41.9113 84.186 36.9135C85.2274 35.4259 87.8704 33.8964 94.5044 34.7199ZM86.463 6.56009C96.1861 6.77475 103.877 10.4121 109.323 17.3706C113.499 22.708 108.9 46.9939 95.5863 67.9455C95.4524 67.7752 95.3178 67.6055 95.1825 67.4364L95.0139 67.2258C98.4544 61.5439 97.7817 55.9222 97.1828 50.938C96.9367 48.8926 96.7043 46.9606 96.7635 45.1458C96.8246 43.2225 97.0789 41.5727 97.325 39.9775C97.6272 38.0118 97.9348 35.9778 97.8501 33.5801C97.9134 33.3285 97.9389 33.0313 97.9057 32.6786C97.6892 30.3793 95.064 23.4978 89.7134 17.2695C86.7866 13.8627 82.5184 10.0503 76.6907 7.4789C79.1973 6.95933 82.6251 6.47486 86.463 6.56009ZM32.0557 79.946C29.3667 83.1791 27.51 82.5593 26.8993 82.356C22.9205 81.0289 18.3037 72.6193 14.2333 59.2838C10.7113 47.745 8.65306 36.1419 8.4899 32.8882C7.97581 22.5982 10.4702 15.4268 15.9041 11.573C24.7476 5.30175 39.2872 9.05536 45.1295 10.9591C45.0457 11.042 44.9582 11.1195 44.8752 11.2038C35.2879 20.8859 35.5153 37.428 35.539 38.4393C35.5381 38.8295 35.5709 39.3818 35.6156 40.1416C35.7806 42.924 36.0878 48.1023 35.2674 53.9665C34.5054 59.416 36.1853 64.7497 39.8756 68.6004C40.2543 68.9948 40.6524 69.3702 41.0683 69.7252C39.4257 71.4844 35.8558 75.3748 32.0557 79.946ZM42.3006 66.2765C39.3264 63.1728 37.9755 58.8559 38.594 54.4314C39.4599 48.2367 39.1404 42.8415 38.9686 39.9429C38.9445 39.5373 38.923 39.1818 38.9107 38.9015C40.3113 37.6595 46.8017 34.1821 51.4304 35.2427C53.5423 35.7262 54.8294 37.1646 55.3645 39.6384C58.1336 52.4466 55.7309 57.7848 53.8003 62.0749C53.4024 62.9586 53.0264 63.794 52.7056 64.6581L52.4567 65.3262C51.8269 67.0153 51.2408 68.5858 50.8775 70.077C47.7155 70.0679 44.6396 68.7171 42.3006 66.276V66.2765ZM42.786 83.5497C41.8627 83.319 41.0323 82.9184 40.5451 82.5862C40.9521 82.3948 41.6763 82.1341 42.9323 81.8752C49.0107 80.6242 49.9496 79.7409 51.9996 77.1381C52.4695 76.541 53.0023 75.8647 53.7401 75.0407L53.741 75.0398C54.8399 73.8092 55.3426 74.018 56.2541 74.3962C56.9929 74.7016 57.7125 75.6277 58.0042 76.6468C58.1423 77.1281 58.2972 78.0414 57.79 78.7524C53.5077 84.7483 47.2675 84.6713 42.786 83.5497ZM74.5974 113.152C67.1613 114.745 64.5283 110.951 62.7933 106.614C61.6735 103.813 61.1229 91.1863 61.5135 77.2415C61.5185 77.056 61.4921 76.8769 61.441 76.7083C61.3954 76.3753 61.3259 76.046 61.2332 75.723C60.6526 73.6939 59.2375 71.9967 57.5398 71.293C56.8653 71.0136 55.6274 70.5009 54.1398 70.8815C54.457 69.5743 55.0071 68.0981 55.6037 66.4998L55.8539 65.8276C56.1356 65.0696 56.4893 64.2844 56.863 63.4531C58.8833 58.9648 61.6502 52.8171 58.6473 38.9288C57.5225 33.7268 53.7661 31.1864 48.0719 31.7766C44.6583 32.1299 41.535 33.5071 39.9772 34.297C39.6422 34.4665 39.3359 34.6306 39.0497 34.7901C39.4845 29.5489 41.1271 19.7538 47.2716 13.5564C51.1405 9.65513 56.2928 7.72819 62.5704 7.83211C74.9397 8.03446 82.8716 14.3822 87.3481 19.6722C91.2056 24.2302 93.2943 28.822 94.1279 31.2986C87.859 30.6609 83.5954 31.8983 81.4342 34.9884C76.7321 41.7099 84.0065 54.7554 87.5026 61.0253C88.1438 62.1742 88.6971 63.1673 88.8712 63.5894C90.0097 66.3485 91.4836 68.1907 92.5596 69.5351C92.8896 69.9472 93.2096 70.3468 93.4529 70.696C91.5543 71.2433 88.1438 72.508 88.4546 78.8298C88.204 82.0019 86.4215 96.8532 85.5159 102.1C84.3205 109.032 81.7696 111.614 74.5974 113.152V113.152ZM105.636 77.6321C103.695 78.5331 100.446 79.209 97.3592 79.3544C93.9502 79.5139 92.2146 78.9725 91.8063 78.6393C91.6149 74.6998 93.081 74.2882 94.6329 73.8525C94.8767 73.7842 95.1146 73.7172 95.3443 73.637C95.487 73.7532 95.6433 73.8685 95.8147 73.9815C98.5547 75.7899 103.442 75.985 110.341 74.5608L110.417 74.5457C109.486 75.4158 107.894 76.5834 105.636 77.6321Z" fill="white"/>
    </g>
    <g id="jest">
        <path d="M107.525 59.083C107.525 52.9145 102.524 47.9135 96.3553 47.9135C95.9581 47.9135 95.567 47.9348 95.1809 47.9756L110.522 2.72803H45.327L60.647 47.936C60.421 47.9218 60.1945 47.9144 59.968 47.9139C53.7995 47.9139 48.7986 52.914 48.7986 59.0834C48.7986 64.0695 52.0665 68.2911 56.5764 69.7273C54.1945 73.8533 51.197 77.5697 47.7939 80.7807C43.1662 85.146 37.8702 88.4565 32.1422 90.496C25.3223 86.9926 22.102 79.2012 25.0077 72.3698C25.3359 71.5981 25.6709 70.8162 25.9911 70.0377C30.9317 68.8846 34.6137 64.4555 34.6137 59.1633C34.6137 52.9944 29.6128 47.9939 23.4439 47.9939C17.2749 47.9939 12.2744 52.9944 12.2744 59.1633C12.2744 62.9461 14.1562 66.2876 17.0334 68.3081C14.2689 74.6024 10.2051 81.1901 8.93887 88.8251C7.4214 97.9749 8.93377 107.688 16.8476 113.173C35.2783 125.947 55.2847 105.254 76.3786 100.052C84.0234 98.1671 92.4151 98.4707 99.1504 94.5701C104.208 91.6406 107.543 86.7855 108.489 81.3351C109.424 75.9507 108.061 70.5896 104.927 66.2425C106.608 64.2361 107.528 61.7009 107.525 59.083Z" fill="#99425B"/>
        <path d="M105.802 80.8682C104.98 85.6005 102.058 89.7336 97.7837 92.2094C93.7993 94.5169 89.025 95.2057 83.9696 95.9344C81.2617 96.3247 78.4614 96.7291 75.7258 97.4034C68.4927 99.187 61.4866 102.667 54.7118 106.032C41.1528 112.767 29.4434 118.583 18.4023 110.931C10.3146 105.325 10.6879 94.9544 11.6301 89.2715C12.5034 84.006 14.8644 79.1569 17.1472 74.4676C17.5361 73.6706 17.9219 72.8721 18.3045 72.0721C19.4553 72.5321 20.6627 72.835 21.8943 72.9726C19.5703 80.6424 23.2251 88.9819 30.8958 92.9225L31.946 93.462L33.0574 93.0662C39.1217 90.9063 44.7099 87.4411 49.6662 82.7645C52.8699 79.7419 55.6246 76.3979 57.8887 72.8247C58.577 72.9285 59.2722 72.9807 59.9683 72.9807C67.0088 72.9807 72.8389 67.7174 73.7411 60.9197C76.623 60.8142 79.6838 60.8134 82.5823 60.9188C83.4837 67.7174 89.3146 72.9811 96.3551 72.9811C99.299 72.9811 102.03 72.0585 104.279 70.4913C105.841 73.6882 106.424 77.2852 105.802 80.8682ZM23.4445 50.7217C28.0994 50.7217 31.886 54.5088 31.886 59.1637C31.886 60.8355 31.3954 62.3946 30.5531 63.7076C29.15 65.896 26.7648 67.396 24.0245 67.5831C23.8327 67.5958 23.6393 67.6052 23.4445 67.6052C22.4071 67.6052 21.4135 67.416 20.4946 67.0724C18.6442 66.3766 17.0946 65.0568 16.1132 63.3406C15.3844 62.0692 15.0015 60.6291 15.0026 59.1637C15.0026 54.5088 18.7897 50.7217 23.4445 50.7217ZM51.5272 59.0833C51.5272 54.8541 54.6535 51.3425 58.7157 50.7353C59.1247 50.6737 59.5431 50.6418 59.9687 50.6418C62.675 50.6418 65.0845 51.9237 66.6296 53.9102C67.0166 54.4055 67.3471 54.9424 67.6151 55.511C68.1398 56.6287 68.4113 57.8485 68.4102 59.0833C68.4102 59.7581 68.3286 60.4141 68.1785 61.0434C67.3558 64.4873 64.419 67.12 60.8203 67.4823C60.5406 67.5104 60.2565 67.5248 59.9687 67.5248C58.345 67.5262 56.7558 67.0563 55.3938 66.1723C53.0697 64.6668 51.5272 62.0523 51.5272 59.0833ZM86.7597 49.0448C84.9227 50.7983 83.6006 53.021 82.9369 55.4723C79.7551 55.355 76.57 55.355 73.3882 55.4723C72.6739 52.8226 71.1934 50.4849 69.2015 48.7094L77.9368 31.0466L86.7597 49.0453V49.0448ZM49.1322 5.45675H106.717L93.1161 45.5703C92.5309 45.7104 91.9556 45.8887 91.3937 46.1039L77.958 18.6956L64.4841 45.9402C63.8967 45.7386 63.2964 45.5768 62.6873 45.4559L49.1322 5.45675ZM104.797 59.0837C104.797 59.9298 104.67 60.747 104.438 61.5187C103.886 63.3355 102.74 64.9144 101.184 66.0023C99.7694 66.9949 98.0831 67.5268 96.3551 67.5252C92.4575 67.5252 89.1696 64.8691 88.2027 61.2721C88.0107 60.5585 87.9135 59.8227 87.9136 59.0837C87.9136 57.9298 88.1466 56.8294 88.5675 55.8269C88.7847 55.3139 89.0522 54.8237 89.366 54.3634C90.8852 52.121 93.4486 50.6422 96.3551 50.6422C96.6217 50.6422 96.8844 50.6558 97.1451 50.6805C101.431 51.0797 104.797 54.695 104.797 59.0837H104.797ZM110.253 59.0837C110.253 52.2987 105.364 46.6375 98.9253 45.4283L114.328 0H41.5223L56.9486 45.5201C50.7334 46.9032 46.0713 52.4573 46.0713 59.0833C46.0713 64.0588 48.7006 68.4287 52.6412 70.8846C50.7457 73.7086 48.4982 76.366 45.9225 78.7963C41.8374 82.6497 37.2867 85.5724 32.3805 87.4955C27.4387 84.3913 25.3498 78.537 27.519 73.4374L27.6891 73.0377L28.008 72.2877C33.4358 70.3943 37.3419 65.2284 37.3419 59.1637C37.3419 51.5002 31.1075 45.2658 23.4445 45.2658C15.7811 45.2658 9.54671 51.5002 9.54671 59.1637C9.54671 63.0315 11.1369 66.5342 13.6956 69.0563C13.2184 70.0674 12.7339 71.0751 12.2423 72.0793C9.90258 76.8843 7.25116 82.3304 6.24817 88.3786C4.25663 100.39 7.46928 109.992 15.2947 115.415C20.0431 118.706 24.8655 120 29.7181 120C38.8552 120 48.0985 115.409 57.1391 110.919C63.6499 107.685 70.3826 104.341 77.0328 102.701C79.5074 102.091 82.0534 101.723 84.749 101.335C90.0948 100.563 95.6221 99.7662 100.518 96.9306C106.194 93.6431 110.079 88.1286 111.178 81.8019C112.121 76.3702 110.986 70.9301 108.218 66.316C109.552 64.1395 110.256 61.636 110.253 59.0833L110.253 59.0837Z" fill="white"/>
    </g>
    <g id="express">
        <path d="M37.2184 73.389V47.1348H38.6425V51.2646C38.8106 51.0815 38.9659 50.887 39.1073 50.6824C40.2967 48.2148 42.8053 46.6574 45.5441 46.6882C48.791 46.5914 51.4295 47.7933 52.98 50.6824C53.9667 52.4773 54.5097 54.4822 54.5636 56.5297C54.6175 58.5771 54.1808 60.6078 53.2899 62.4521C51.8453 65.6899 48.2772 67.2996 44.4572 66.7084C43.2684 66.6073 42.1239 66.2101 41.1281 65.553C40.1322 64.8959 39.3169 63.9998 38.7564 62.9465V73.3878L37.2184 73.389ZM38.6425 56.422L38.9615 59.5048C39.5243 63.0138 41.5988 65.0872 44.856 65.4768C46.3856 65.7283 47.955 65.4416 49.2968 64.6654C50.6386 63.8893 51.6698 62.6718 52.2144 61.2206C53.4813 58.2015 53.3879 54.7838 51.9638 51.8354C51.3825 50.5344 50.3935 49.4581 49.1464 48.7689C47.8992 48.0797 46.4616 47.8153 45.0508 48.0154C43.7266 48.1118 42.4652 48.6181 41.4419 49.4642C40.4187 50.3102 39.6843 51.454 39.3408 52.7365C39.0376 53.9502 38.8044 55.1804 38.6425 56.4209V56.422ZM83.6409 59.9902C83.4249 61.8387 82.5449 63.5459 81.1646 64.7942C79.7842 66.0425 77.9974 66.7471 76.1366 66.7767C70.1646 67.0775 67.362 63.1117 66.9166 58.5353C66.6068 56.0501 67.0102 53.5281 68.0797 51.2635C68.8241 49.71 70.0438 48.4338 71.5619 47.6198C73.0801 46.8058 74.8181 46.4963 76.5239 46.736C78.1456 46.8739 79.6829 47.5183 80.9182 48.5779C82.1535 49.6376 83.0243 51.059 83.4073 52.6408C83.7107 54.0818 83.934 55.5385 84.0761 57.0042H68.3919C68.1014 61.1534 70.3309 64.4891 73.4912 65.2934C77.4273 66.2618 80.7916 64.5563 82.0129 60.8139C82.284 59.8535 82.7785 59.7179 83.6511 59.9902H83.6409ZM68.3805 55.6758H82.4093C82.3216 51.2555 79.5692 48.0428 75.8358 48.0063C71.6206 47.938 68.5639 51.0219 68.3805 55.6758ZM86.5403 60.087H87.9154C87.9659 61.1001 88.2949 62.0796 88.8661 62.9177C89.4373 63.7559 90.2287 64.4203 91.1531 64.8377C92.3139 65.3601 93.5775 65.614 94.8499 65.5804C96.1224 65.5469 97.3708 65.2268 98.5025 64.644C99.1193 64.3663 99.6361 63.9059 99.9828 63.325C100.33 62.7441 100.49 62.0708 100.441 61.396C100.477 60.7452 100.299 60.1006 99.9354 59.5599C99.5715 59.0192 99.0413 58.6119 98.425 58.3998C96.9121 57.837 95.3034 57.5271 93.762 57.0327C92.1581 56.576 90.5897 56.0026 89.0694 55.3169C86.5858 54.1048 86.432 49.3837 89.2437 47.889C90.6834 47.0766 92.3036 46.6376 93.9565 46.6122C95.6094 46.5867 97.2424 46.9755 98.7064 47.7432C100.522 48.7457 101.526 50.7702 101.228 52.8242H100.048C100.048 52.7673 99.9414 52.7171 99.9414 52.659C99.7955 48.8995 96.6352 47.7238 93.2425 48.0542C92.2172 48.1681 91.2454 48.478 90.334 48.936C89.7861 49.1862 89.3296 49.6005 89.0275 50.1215C88.7254 50.6426 88.5928 51.2447 88.6479 51.8445C88.649 52.4447 88.8361 53.0298 89.1833 53.5194C89.5305 54.0091 90.0209 54.3791 90.5869 54.5787C92.0679 55.1221 93.6401 55.4707 95.1724 55.8968L98.875 56.8652C99.7166 57.1414 100.454 57.6666 100.991 58.3712C101.528 59.0759 101.838 59.9269 101.88 60.8116C102.177 62.7996 101.163 64.7534 99.3695 65.6591C96.1317 67.491 90.7988 67.0069 88.4235 64.6907C87.2079 63.4683 86.53 61.8084 86.5437 60.0859L86.5403 60.087ZM119.328 52.8254H118.038C118.038 52.6511 117.97 52.4836 117.951 52.3503C117.93 51.3836 117.578 50.4534 116.953 49.7156C116.328 48.9778 115.468 48.4773 114.518 48.298C112.726 47.7839 110.814 47.876 109.079 48.56C108.393 48.7563 107.79 49.1693 107.358 49.7373C106.926 50.3053 106.69 50.9978 106.685 51.7112C106.66 52.4117 106.878 53.0991 107.302 53.6573C107.726 54.2155 108.33 54.6102 109.011 54.7746L114.906 56.2876C115.543 56.4405 116.171 56.6314 116.785 56.8595C118.665 57.543 119.941 59.2884 119.998 61.2832C120.026 62.2597 119.758 63.2218 119.23 64.0432C118.701 64.8647 117.936 65.507 117.036 65.8858C115.668 66.5073 114.185 66.8361 112.682 66.8512C111.18 66.8663 109.691 66.5674 108.31 65.9735C107.175 65.4841 106.217 64.6586 105.565 63.6081C104.914 62.5577 104.599 61.3329 104.665 60.0984H105.925C106.399 62.3826 107.967 64.2852 110.119 65.1852C112.272 66.0852 114.729 65.8642 116.686 64.5973C117.273 64.2919 117.761 63.8247 118.091 63.2509C118.421 62.677 118.579 62.0207 118.548 61.3596C118.577 60.7083 118.393 60.0653 118.024 59.5281C117.654 58.9909 117.12 58.5887 116.502 58.3827C114.989 57.8199 113.38 57.5203 111.839 57.0156C110.226 56.5659 108.648 55.999 107.118 55.3192C104.693 54.1264 104.5 49.4441 107.263 47.9505C108.721 47.104 110.373 46.6493 112.058 46.6305C113.743 46.6117 115.405 47.0296 116.881 47.8434C117.725 48.3472 118.405 49.0857 118.837 49.9688C119.269 50.8519 119.435 51.8416 119.314 52.8174L119.328 52.8254ZM34.875 66.3028C34.3673 66.4948 33.807 66.4942 33.2997 66.3014C32.7924 66.1085 32.3732 65.7366 32.1214 65.2558L27.1086 58.3234L26.3818 57.3551L20.5647 65.2661C20.3276 65.7261 19.9312 66.0842 19.4494 66.2733C18.9676 66.4624 18.4335 66.4696 17.9467 66.2937L25.4408 56.2397L18.4685 47.1553C19.5029 46.7816 20.6559 47.1872 21.2312 48.1237L26.4262 55.1415L31.652 48.151C31.8908 47.6988 32.2876 47.3502 32.7667 47.1714C33.2458 46.9927 33.774 46.9963 34.2506 47.1815L31.5449 50.7713L27.8799 55.5414C27.7782 55.6322 27.6968 55.7435 27.6411 55.868C27.5854 55.9924 27.5565 56.1273 27.5565 56.2637C27.5565 56.4 27.5854 56.5349 27.6411 56.6593C27.6968 56.7838 27.7782 56.8951 27.8799 56.9859L34.8601 66.3028H34.875ZM66.6944 47.0585V48.4256C65.7138 48.3612 64.7306 48.5033 63.8083 48.8424C62.886 49.1816 62.0451 49.7104 61.3398 50.3946C60.6345 51.0789 60.0805 51.9034 59.7135 52.8151C59.3466 53.7267 59.1749 54.7051 59.2095 55.6872C59.2095 58.8802 59.2095 62.0731 59.2095 65.2661V66.3518H57.823V47.1439H59.1901V51.08C60.8671 48.2091 63.4555 47.1439 66.7035 47.0664L66.6944 47.0585ZM0.00227889 56.1144L0.612921 53.0988C2.28991 47.1359 9.12545 44.6546 13.8283 48.3481C16.5819 50.5104 17.2689 53.5739 17.1344 57.0258H1.62116C1.37053 63.1915 5.81933 66.9146 11.5099 65.0143C13.3851 64.3307 14.7967 62.7722 15.2615 60.8355C15.5623 59.8671 16.059 59.7008 16.9681 59.9811C16.8165 61.1615 16.3992 62.2921 15.7476 63.2881C15.096 64.284 14.2271 65.1192 13.2063 65.7309C11.5197 66.6533 9.58459 67.0187 7.67775 66.775C5.77091 66.5313 3.98995 65.6909 2.58953 64.374C1.2042 62.8167 0.367981 60.848 0.205067 58.7689C0.205067 58.4271 0.0911409 58.1081 0.0113928 57.8005C0.00379779 57.2256 0 56.6635 0 56.1144H0.00227889ZM1.64053 55.6974H15.6693C15.5816 51.2281 12.7608 48.0576 8.99899 48.028C4.81108 47.971 1.81484 51.0721 1.63028 55.6781L1.64053 55.6974Z" fill="#1F2626"/>
    </g>
    <g id="docker">
        <path d="M117.523 49.7463C114.821 47.8713 108.628 47.1681 103.787 48.1056C103.224 43.4181 100.634 39.3171 96.1307 35.6842L93.5413 33.8092L91.7394 36.5046C89.488 40.0202 88.3621 44.9421 88.6996 49.6296C88.8121 51.2697 89.375 54.1994 91.0639 56.7775C89.488 57.715 86.2227 58.8869 81.9444 58.8869H0.541279L0.316279 59.8244C-0.472159 64.5114 -0.472159 79.1594 8.76034 90.4089C15.741 98.9632 26.0994 103.299 39.7227 103.299C69.2211 103.299 91.0639 89.1194 101.31 63.4567C105.363 63.5739 114.033 63.4567 118.424 54.6677C118.536 54.4333 118.761 53.9646 119.549 52.2072L120 51.2697L117.523 49.7463ZM65.6183 16.7008H53.2339V28.4191H65.6183V16.7008ZM65.6183 30.7628H53.2339V42.4811H65.6183V30.7624V30.7628ZM50.9816 30.7628H38.5972V42.4811H50.9816V30.7624V30.7628ZM36.3449 30.7628H23.96V42.4811H36.3449V30.7624V30.7628ZM21.7082 44.8249H9.32331V56.5432H21.7077V44.8244L21.7082 44.8249ZM36.3449 44.8249H23.96V56.5432H36.3449V44.8244V44.8249ZM50.9816 44.8249H38.5972V56.5432H50.9816V44.8244V44.8249ZM65.6188 44.8249H53.2335V56.5432H65.6188V44.8244V44.8249ZM80.2555 44.8249H67.8702V56.5432H80.2555V44.8244V44.8249Z" fill="#2396ED"/>
    </g>
    <g id="react">
        <path d="M0 59.7974C0 69.273 8.84919 78.1189 22.8007 83.1049C20.0147 97.7701 22.3014 109.59 29.9391 114.196C37.79 118.93 49.4858 115.653 60.5867 105.507C71.4076 115.243 82.3439 119.075 89.9746 114.456C97.8178 109.709 100.203 97.087 97.3404 81.964C111.872 76.9405 120 69.3977 120 59.7974C120 50.5414 111.134 42.5338 97.3711 37.5796C100.453 21.8316 97.8416 10.2984 89.8877 5.50237C82.2193 0.878721 71.156 4.9087 60.176 14.9001C48.7532 4.29502 37.799 1.05714 29.8528 5.86712C22.1918 10.5039 20.0057 22.5388 22.8007 37.4756C9.32028 42.39 0 50.5784 0 59.7974Z" fill="white"/>
        <path d="M94.4565 42.4992C93.351 42.1013 92.2054 41.7248 91.0259 41.3688C91.2198 40.5415 91.3977 39.7249 91.5559 38.9222C94.1528 25.7415 92.4549 15.1231 86.6569 11.627C81.0973 8.27476 72.005 11.77 62.8223 20.1259C61.9393 20.9294 61.0538 21.7801 60.1687 22.6717C59.5789 22.0818 58.9901 21.5118 58.4028 20.9665C48.779 12.0318 39.1327 8.26663 33.3404 11.7728C27.7861 15.1348 26.1413 25.1171 28.4789 37.6085C28.7046 38.8151 28.9685 40.0472 29.2669 41.3C27.9016 41.7052 26.5836 42.1372 25.3226 42.5967C14.0397 46.7099 6.83398 53.1561 6.83398 59.8425C6.83398 66.7483 14.5693 73.675 26.3213 77.875C27.2487 78.2064 28.211 78.5198 29.2028 78.8173C28.8808 80.1722 28.6009 81.4999 28.3658 82.7949C26.1369 95.0696 27.8776 104.816 33.417 108.157C39.1388 111.607 48.7415 108.061 58.0921 99.5143C58.8311 98.8387 59.5729 98.1223 60.3159 97.3714C61.279 98.3411 62.2405 99.2588 63.197 100.12C72.2541 108.269 81.1995 111.56 86.7339 108.21C92.4499 104.75 94.3076 94.2798 91.8958 81.5412C91.7116 80.5683 91.4973 79.5744 91.2566 78.5628C91.9309 78.3544 92.593 78.1392 93.2385 77.9154C105.456 73.6829 113.405 66.8406 113.405 59.8425C113.405 53.1319 105.967 46.6422 94.4565 42.4992Z" fill="#53C1DE"/>
        <path d="M91.8055 73.3972C91.2227 73.599 90.6248 73.7939 90.0155 73.9829C88.6668 69.5184 86.8465 64.771 84.6189 59.8661C86.7446 55.078 88.4946 50.3913 89.8055 45.9557C90.8957 46.2855 91.9538 46.6334 92.9734 47.0006C102.835 50.5504 108.851 55.7988 108.851 59.8429C108.851 64.1505 102.354 69.7425 91.8055 73.3972ZM87.4285 82.466C88.4949 88.0988 88.6473 93.1916 87.9408 97.1728C87.3061 100.75 86.0297 103.135 84.4514 104.09C81.0929 106.123 73.9106 103.481 66.1648 96.5115C65.2769 95.7125 64.3825 94.8595 63.4852 93.9566C66.4881 90.5226 69.4893 86.5305 72.4183 82.0969C77.5702 81.6189 82.4376 80.8374 86.8516 79.7705C87.069 80.6874 87.2621 81.5867 87.4285 82.466ZM43.1651 103.739C39.8838 104.951 37.2704 104.986 35.6906 104.033C32.329 102.006 30.9316 94.1803 32.8378 83.6831C33.0561 82.4809 33.316 81.246 33.6155 79.9837C37.9812 80.9931 42.8129 81.7194 47.9771 82.1572C50.9259 86.4956 54.0138 90.4834 57.1255 93.975C56.4457 94.6613 55.7685 95.3147 55.095 95.9303C50.9603 99.7094 46.8168 102.391 43.1651 103.739ZM27.7925 73.3709C22.596 71.5137 18.3046 69.1001 15.363 66.4662C12.7198 64.0994 11.3853 61.7496 11.3853 59.8429C11.3853 55.7853 17.1707 50.6099 26.8199 47.0922C27.9907 46.6654 29.2163 46.2631 30.4882 45.8853C31.8218 50.421 33.5712 55.1633 35.6823 59.9587C33.5438 64.8253 31.7696 69.6431 30.423 74.2321C29.5163 73.9595 28.6378 73.6727 27.7925 73.3709ZM32.9456 36.6947C30.9428 25.9923 32.2729 17.9189 35.6201 15.893C39.1854 13.7348 47.0693 16.8119 55.3786 24.5266C55.9098 25.0197 56.443 25.5358 56.9778 26.0697C53.8814 29.5461 50.8218 33.5039 47.8992 37.8167C42.8871 38.3025 38.0893 39.0828 33.6782 40.1277C33.4008 38.9612 33.1552 37.8152 32.9456 36.6947ZM78.9154 48.5635C77.8608 46.659 76.7783 44.7995 75.6746 42.9908C79.0749 43.4402 82.3327 44.0369 85.3921 44.767C84.4736 47.8449 83.3288 51.0631 81.9812 54.3622C81.0145 52.4432 79.9921 50.5083 78.9154 48.5635ZM60.169 29.4717C62.2689 31.8505 64.3719 34.5063 66.4403 37.3879C64.3559 37.285 62.2458 37.2314 60.1181 37.2314C58.0106 37.2314 55.916 37.2838 53.8446 37.3849C55.9151 34.5301 58.0363 31.8779 60.169 29.4717ZM41.3025 48.5965C40.2492 50.5063 39.2457 52.4307 38.2942 54.3586C36.9684 51.071 35.8342 47.8382 34.9077 44.7166C37.9484 44.0051 41.1908 43.4234 44.5695 42.9825C43.4503 44.8078 42.3588 46.681 41.3025 48.5961V48.5965ZM44.6668 77.0428C41.176 76.6356 37.8848 76.0838 34.845 75.392C35.7862 72.2147 36.9454 68.9128 38.2993 65.5544C39.2533 67.481 40.2607 69.4061 41.3206 71.3202H41.3208C42.4003 73.2701 43.5187 75.1802 44.6668 77.0428ZM60.2949 90.5496C58.1372 88.1153 55.9849 85.4226 53.8829 82.5261C55.9234 82.6098 58.0038 82.6527 60.1181 82.6527C62.2903 82.6527 64.4377 82.6015 66.5513 82.5031C64.476 85.4517 62.3806 88.1486 60.2949 90.5496ZM82.0246 65.3833C83.4491 68.778 84.6498 72.0626 85.6032 75.1857C82.5133 75.9228 79.1771 76.5164 75.6621 76.9575C76.7684 75.1244 77.8605 73.233 78.9336 71.2874C80.0192 69.319 81.05 67.3477 82.0246 65.3833ZM74.99 68.9093C73.3241 71.9295 71.6138 74.8126 69.8776 77.5341C66.7152 77.7706 63.448 77.8923 60.1181 77.8923C56.8017 77.8923 53.5758 77.7846 50.4693 77.5738C48.6631 74.8166 46.9156 71.9249 45.2603 68.9352H45.2607C43.6098 65.9537 42.0903 62.947 40.7135 59.9571C42.09 56.9603 43.6054 53.9502 45.2469 50.974L45.2465 50.9746C46.8923 47.9905 48.6244 45.1129 50.4139 42.3729C53.5834 42.1224 56.8334 41.9917 60.118 41.9917H60.1181C63.4175 41.9917 66.6717 42.1234 69.8402 42.3761C71.6024 45.096 73.3228 47.9643 74.975 50.9488C76.646 53.9669 78.1811 56.9569 79.5692 59.8895C78.1852 62.8724 76.6536 65.8926 74.99 68.9093ZM84.3816 15.7513C87.9503 17.9032 89.3381 26.5816 87.0959 37.9617C86.9529 38.6879 86.7919 39.4275 86.617 40.1771C82.1956 39.1104 77.3944 38.3166 72.3677 37.8235C69.4394 33.4632 66.4048 29.4993 63.3589 26.0675C64.1778 25.2438 64.9956 24.4583 65.8099 23.7171C73.6777 16.5578 81.0312 13.7312 84.3816 15.7513Z" fill="white"/>
        <path d="M60.1185 49.8923C65.3741 49.8923 69.6349 54.3472 69.6349 59.8428C69.6349 65.3381 65.3741 69.7932 60.1185 69.7932C54.8628 69.7932 50.6021 65.3381 50.6021 59.8428C50.6021 54.3472 54.8628 49.8923 60.1185 49.8923Z" fill="#53C1DE"/>
    </g>
    <g id="reactNative">
        <g clip-path="url(#clip0_1_2463)">
        <path d="M59.9999 63.6073C65.9173 63.6073 70.7142 58.8103 70.7142 52.893C70.7142 46.9757 65.9173 42.1787 59.9999 42.1787C54.0826 42.1787 49.2856 46.9757 49.2856 52.893C49.2856 58.8103 54.0826 63.6073 59.9999 63.6073Z" fill="#F5DE19"/>
        <path d="M60 77.4583C47.122 77.7698 34.2763 76.0339 21.9429 72.3155C16.2455 70.5094 10.9317 67.6643 6.27 63.924C4.49113 62.6463 3.00974 60.9988 1.92747 59.0946C0.845197 57.1905 0.18767 55.0748 0 52.8926C0 45.8083 7.78286 38.8655 20.82 34.3226C33.4831 30.2972 46.714 28.3463 60 28.5455C73.1087 28.3623 86.1623 30.2779 98.6657 34.2197C104.153 35.969 109.286 38.6765 113.829 42.2169C115.577 43.4351 117.036 45.0228 118.103 46.8677C119.169 48.7126 119.817 50.7695 120 52.8926C120 60.2555 111.3 67.7169 97.2857 72.354C85.1911 75.9513 72.6164 77.6728 60 77.4583ZM60 33.6712C47.2891 33.5013 34.6321 35.3559 22.5043 39.1655C10.5043 43.3526 5.12571 49.0783 5.12571 52.8797C5.12571 56.8569 10.9071 63.1097 23.6014 67.4512C35.4003 70.9905 47.6855 72.6381 60 72.3326C72.0703 72.5484 84.1025 70.9152 95.6786 67.4897C108.857 63.1226 114.857 56.8612 114.857 52.8926C114.641 51.5307 114.145 50.2285 113.4 49.0681C112.655 47.9078 111.677 46.9145 110.529 46.1512C106.465 43.0104 101.879 40.6108 96.9814 39.0626C85.0201 35.3073 72.5356 33.4872 60 33.6712Z" fill="#F5DE19"/>
        <path d="M35.6553 106.331C33.656 106.377 31.6803 105.892 29.9295 104.925C23.7924 101.385 21.6667 91.1767 24.2424 77.6124C27.0823 64.6313 32.003 52.1951 38.8138 40.7852C45.2027 29.3385 53.3818 18.9877 63.041 10.1252C67.2974 6.24538 72.2076 3.1504 77.5438 0.983791C79.4739 0.0792446 81.5794 -0.389648 83.711 -0.389648C85.8425 -0.389648 87.948 0.0792446 89.8781 0.983791C96.2595 4.66093 98.3724 15.9238 95.3938 30.3795C92.4662 42.6562 87.6734 54.4114 81.1824 65.2352C75.0184 76.5468 67.0969 86.8074 57.7138 95.6338C53.3029 99.6657 48.1838 102.846 42.6153 105.015C40.3859 105.843 38.0328 106.287 35.6553 106.331ZM43.2538 43.3309C36.7571 54.2566 32.041 66.1468 29.2824 78.5552C26.9124 91.0481 29.1881 98.5609 32.4967 100.472C35.9253 102.457 44.2481 100.575 54.3538 91.7467C63.3111 83.2907 70.872 73.4689 76.7553 62.6466C82.9736 52.2989 87.5711 41.0601 90.3881 29.3209C93.191 15.7138 90.7695 7.38236 87.3324 5.40236C86.0442 4.90876 84.6675 4.6878 83.2895 4.75346C81.9115 4.81911 80.5622 5.16995 79.3267 5.78379C74.5767 7.74385 70.2098 10.5265 66.4267 14.0038C57.1981 22.4929 49.3854 32.4021 43.2838 43.3566L43.2538 43.3309Z" fill="#F5DE19"/>
        <path d="M84.3262 106.387C78.5191 106.387 71.1434 102.872 63.4634 96.2681C53.6349 87.325 45.3175 76.8512 38.8334 65.2524C32.1079 53.9996 27.2262 41.7433 24.3734 28.9481C23.1361 23.3187 22.9068 17.5146 23.6962 11.8052C23.8787 9.68726 24.5236 7.63511 25.5855 5.7935C26.6474 3.95188 28.1003 2.36565 29.8419 1.14666C36.2148 -2.54334 47.0276 1.24951 58.0634 11.0467C67.2373 19.7132 75.0279 29.7354 81.1634 40.7638C87.8846 51.7539 92.8175 63.7418 95.7776 76.2795C97.0681 82.1154 97.2672 88.1397 96.3648 94.0481C96.1501 96.227 95.4667 98.3337 94.3615 100.224C93.2564 102.114 91.7555 103.742 89.9619 104.998C88.2398 105.953 86.2947 106.432 84.3262 106.387ZM43.2691 62.6724C49.4895 73.7571 57.4346 83.7811 66.8062 92.3681C76.4448 100.661 84.0905 102.444 87.3776 100.511C90.8062 98.5181 93.3348 90.3838 90.7291 77.2224C87.8743 65.2521 83.1429 53.8091 76.7105 43.3181C70.8555 32.7629 63.4194 23.1661 54.6605 14.8609C44.2719 5.63808 35.8462 3.57666 32.4134 5.56523C31.3434 6.43472 30.4654 7.51661 29.8347 8.7426C29.204 9.96858 28.8343 11.312 28.7491 12.6881C28.0677 17.7799 28.2896 22.952 29.4048 27.9667C32.1489 40.203 36.8308 51.9221 43.2734 62.6809L43.2691 62.6724Z" fill="#F5DE19"/>
        </g>
        <defs>
        <clipPath id="clip0_1_2463">
        <rect width="120" height="106" fill="white"/>
        </clipPath>
        </defs>
    </g>
    <g id="redux">
        <g clip-path="url(#clip0_1_2440)">
        <path d="M83.1473 82.6013C87.5756 82.1428 90.9352 78.3253 90.7823 73.7438C90.63 69.1627 86.812 65.4975 82.2309 65.4975H81.9258C77.1914 65.6503 73.5267 69.6207 73.6795 74.3546C73.8323 76.6453 74.7483 78.6305 76.1227 80.0049C70.9308 90.2368 62.9902 97.7194 51.0792 103.98C42.9858 108.256 34.5872 109.784 26.1886 108.715C19.3167 107.798 13.972 104.745 10.612 99.7046C5.72578 92.2219 5.26781 84.128 9.39093 76.0346C12.2925 70.2314 16.8731 65.9555 19.7747 63.8175C19.1639 61.8324 18.2475 58.4728 17.7895 56.0297C-4.35282 72.0643 -2.06204 93.7491 4.65703 103.98C9.69609 111.616 19.9275 116.35 31.2276 116.35C34.2816 116.35 37.3355 116.045 40.3898 115.282C59.9362 111.464 74.7487 99.8574 83.1473 82.6013ZM110.024 63.6652C98.4178 50.0738 81.315 42.5911 61.7686 42.5911H59.3255C57.9511 39.8424 55.0495 38.0096 51.8428 38.0096H51.5372C46.8037 38.1624 43.1391 42.1327 43.2914 46.8671C43.4442 51.4482 47.2617 55.1133 51.8428 55.1133H52.148C55.5075 54.9605 58.4091 52.8225 59.6306 49.921H62.3794C73.9852 49.921 84.9797 53.2805 94.9059 59.8472C102.541 64.8868 108.038 71.4535 111.092 79.3941C113.688 85.808 113.535 92.0691 110.787 97.4143C106.511 105.508 99.3342 109.936 89.8664 109.936C83.7581 109.936 77.9555 108.104 74.9011 106.729C73.2216 108.256 70.1672 110.7 68.0292 112.227C74.5959 115.281 81.315 116.961 87.7284 116.961C102.388 116.961 113.23 108.867 117.353 100.774C121.782 91.9163 121.476 76.6453 110.024 63.6652ZM32.4492 85.1968C32.602 89.7783 36.4195 93.443 41.0006 93.443H41.3062C46.0401 93.2907 49.7048 89.3199 49.552 84.586C49.3997 80.0044 45.5817 76.3397 41.0006 76.3397H40.6955C40.3898 76.3397 39.9314 76.3397 39.6267 76.4921C33.3656 66.1078 30.7697 54.8077 31.6861 42.5907C32.2964 33.428 35.3508 25.4869 40.6955 18.9202C45.1237 13.2699 53.6751 10.5211 59.4783 10.3688C75.6647 10.0632 82.5361 30.2208 82.9945 38.3147C84.9797 38.7727 88.3392 39.8419 90.63 40.6055C88.7972 15.8668 73.5267 3.03894 58.8675 3.03894C45.1237 3.03894 32.4492 12.9652 27.4097 27.6253C20.3855 47.1722 24.9666 65.9555 33.518 80.7685C32.7548 81.8372 32.2964 83.5172 32.4492 85.1972V85.1968Z" fill="#764ABC"/>
        </g>
        <defs>
        <clipPath id="clip0_1_2440">
        <rect width="120" height="120" fill="white"/>
        </clipPath>
        </defs>
    </g>
    <g id="gmail">
        <circle cx="18.8683" cy="18.8683" r="18.8683" fill="#5222D0"/>
        <g clip-path="url(#clip0_1_2353)">
        <path d="M30.6605 11.4974V26.2383C30.6605 27.0748 30.023 27.7123 29.1864 27.7123H27.7123V14.3343L18.8679 20.6876L10.0234 14.3343V27.7123H8.54928C7.71274 27.7123 7.0752 27.0748 7.0752 26.2383V11.4974C7.0752 11.0788 7.23292 10.7103 7.49752 10.4494C7.63533 10.3115 7.79945 10.2027 7.98013 10.1295C8.16081 10.0563 8.35436 10.0202 8.54928 10.0233H9.04088L18.8679 17.1483L28.6948 10.0233H29.1864C29.6051 10.0233 29.9736 10.1811 30.2382 10.4494C30.5028 10.7103 30.6605 11.0788 30.6605 11.4974Z" fill="#DBFFFF"/>
        </g>
        <defs>
        <clipPath id="clip0_1_2353">
        <rect width="23.5853" height="23.5853" fill="white" transform="translate(7.0752 7.07556)"/>
        </clipPath>
        </defs>
    </g>
    <g id="linkedin">
        <ellipse cx="18.8683" cy="18.8683" rx="18.8683" ry="18.8683" fill="#5222D0"/>
        <path d="M9.57937 28.7053H13.5274V14.0976H9.57937V28.7053ZM11.5534 7.6492C10.2374 7.6492 9.18457 8.70201 9.18457 10.018C9.18457 11.334 10.2374 12.3868 11.5534 12.3868C12.8694 12.3868 13.9222 11.334 13.9222 10.018C13.9222 8.70201 12.8694 7.6492 11.5534 7.6492ZM20.239 16.3348V14.0976H16.291V28.7053H20.239V21.2041C20.239 16.9929 25.6347 16.7297 25.6347 21.2041V28.7053H29.5827V19.7565C29.5827 12.65 22.0814 12.9132 20.239 16.3348Z" fill="#DBFFFF"/>
    </g>
    <g id="github">
        <circle cx="18.8683" cy="18.8683" r="18.8683" fill="#DBFFFF"/>
        <g clip-path="url(#clip0_1_2367)">
        <path fill-rule="evenodd" clip-rule="evenodd" d="M18.8683 0C8.44354 0 0 8.44354 0 18.8682C0 27.2175 5.40104 34.2695 12.9012 36.7695C13.8446 36.9346 14.1984 36.3686 14.1984 35.8733C14.1984 35.4251 14.1748 33.9393 14.1748 32.3591C9.43413 33.2317 8.20769 31.2034 7.83032 30.142C7.61806 29.5996 6.69823 27.925 5.89633 27.4769C5.23594 27.1231 4.29253 26.2505 5.87274 26.2269C7.35862 26.2033 8.41996 27.5948 8.77374 28.1609C10.4719 31.0147 13.1842 30.2128 14.2691 29.7175C14.4342 28.4911 14.9295 27.6656 15.472 27.1939C11.2738 26.7222 6.88691 25.0948 6.88691 17.8777C6.88691 15.8257 7.61806 14.1276 8.82091 12.8068C8.63223 12.3351 7.97184 10.4011 9.00959 7.80674C9.00959 7.80674 10.5898 7.31145 14.1984 9.74073C15.7078 9.3162 17.3116 9.10393 18.9154 9.10393C20.5192 9.10393 22.123 9.3162 23.6325 9.74073C27.241 7.28786 28.8213 7.80674 28.8213 7.80674C29.859 10.4011 29.1986 12.3351 29.0099 12.8068C30.2128 14.1276 30.9439 15.8022 30.9439 17.8777C30.9439 25.1184 26.5335 26.7222 22.3353 27.1939C23.0193 27.7835 23.6089 28.9156 23.6089 30.6845C23.6089 33.2081 23.5853 35.2365 23.5853 35.8733C23.5853 36.3686 23.9391 36.9582 24.8825 36.7695C28.6281 35.5049 31.8829 33.0976 34.1887 29.8863C36.4946 26.6751 37.7354 22.8216 37.7365 18.8682C37.7365 8.44354 29.293 0 18.8683 0Z" fill="#5222D0"/>
        </g>
        <defs>
        <clipPath id="clip0_1_2367">
        <rect width="37.7365" height="37.7365" fill="white"/>
        </clipPath>
        </defs>
    </g>
    <g id="ts">
        <path d="M0 60V120H60H120V60V0H60H0V60Z" fill="#007ACC"/>
        <path d="M26.5375 60.3979L26.4994 65.3122H34.309H42.1185L42.1185 87.5026V109.693H47.6423H53.1661V87.5026L53.1661 65.3122H60.9756H68.7852V60.4931C68.7852 57.8264 68.728 55.5979 68.6518 55.5407C68.5947 55.4645 59.0899 55.4264 47.5661 55.4455L26.5947 55.5026L26.5375 60.3979Z" fill="white"/>
        <path d="M96.8265 55.3636C99.8741 56.1255 102.198 57.4779 104.331 59.6874C105.436 60.8684 107.074 63.0208 107.207 63.535C107.246 63.6874 102.026 67.1922 98.8646 69.1541C98.7503 69.2303 98.2931 68.7351 97.7789 67.9731C96.236 65.7255 94.6169 64.7541 92.1408 64.5827C88.5027 64.335 86.1598 66.2398 86.1789 69.4208C86.1789 70.3541 86.3122 70.9065 86.6931 71.6684C87.4931 73.3255 88.9789 74.316 93.6455 76.3351C102.236 80.0303 105.912 82.4684 108.198 85.935C110.75 89.8017 111.322 95.9731 109.588 100.564C107.684 105.554 102.96 108.945 96.3122 110.068C94.255 110.43 89.3789 110.373 87.1693 109.973C82.3503 109.116 77.7789 106.735 74.9598 103.611C73.855 102.392 71.7027 99.2112 71.836 98.9827C71.8931 98.9065 72.3884 98.6017 72.9408 98.2779C73.4741 97.9731 75.4931 96.8112 77.3979 95.7065L80.8455 93.7065L81.5693 94.7731C82.5789 96.316 84.7884 98.4303 86.1217 99.135C89.9503 101.154 95.2074 100.868 97.7979 98.5446C98.9027 97.535 99.3598 96.4874 99.3598 94.9446C99.3598 93.5541 99.1884 92.9446 98.4646 91.897C97.5312 90.5636 95.6265 89.4398 90.2169 87.097C84.0265 84.4303 81.3598 82.7731 78.9217 80.1446C77.5122 78.6208 76.1789 76.1827 75.6265 74.1446C75.1693 72.4493 75.055 68.2017 75.4169 66.4874C76.6931 60.5065 81.2074 56.335 87.7217 55.097C89.836 54.697 94.7503 54.8493 96.8265 55.3636Z" fill="white"/>
    </g>
    <g id="js">
        <path d="M0 0H115.49V120H0V0Z" fill="#F7DF1E"/>
        <path d="M30.3654 100.28L39.2035 94.7229C40.9086 97.8641 42.4596 100.522 46.1801 100.522C49.7463 100.522 51.9947 99.0723 51.9947 93.4342V55.0913H62.8479V93.5936C62.8479 105.274 56.2587 110.59 46.6453 110.59C37.9632 110.59 32.9234 105.918 30.3652 100.28" fill="#1F2626"/>
        <path d="M68.7451 99.0724L77.5822 93.756C79.9085 97.7035 82.9319 100.603 88.2808 100.603C92.7778 100.603 95.6454 98.2669 95.6454 95.0448C95.6454 91.1783 92.6997 89.8088 87.738 87.5541L85.0254 86.345C77.195 82.8819 72.0007 78.5322 72.0007 69.3492C72.0007 60.8913 78.2025 54.4469 87.8934 54.4469C94.7932 54.4469 99.7547 56.9442 103.32 63.469L94.8701 69.1073C93.0095 65.6438 90.9944 64.2747 87.8936 64.2747C84.7151 64.2747 82.6993 66.369 82.6993 69.1073C82.6993 72.4905 84.7151 73.8602 89.366 75.9547L92.0791 77.1629C101.305 81.2713 106.499 85.4595 106.499 94.8836C106.499 105.034 98.8241 110.591 88.5136 110.591C78.4355 110.591 71.9233 105.597 68.7453 99.0724" fill="#1F2626"/>
    </g>
   <g id="git"  transform="translate(15, 15)">
  <path 
    d="M90.156 41.965L50.036 1.848a5.918 5.918 0 0 0-8.372 0l-8.328 8.332 10.566 10.566a7.03 7.03 0 0 1 7.23 1.684 7.034 7.034 0 0 1 1.669 7.277l10.187 10.184a7.028 7.028 0 0 1 7.278 1.672 7.04 7.04 0 0 1 0 9.957 7.05 7.05 0 0 1-9.965 0 7.044 7.044 0 0 1-1.528-7.66l-9.5-9.497V59.36a7.04 7.04 0 0 1 1.86 11.29 7.04 7.04 0 0 1-9.957 0 7.04 7.04 0 0 1 0-9.958 7.06 7.06 0 0 1 2.304-1.539V33.926a7.049 7.049 0 0 1-3.82-9.234L29.242 14.272 1.73 41.777a5.925 5.925 0 0 0 0 8.371L41.852 90.27a5.925 5.925 0 0 0 8.37 0l39.934-39.934a5.925 5.925 0 0 0 0-8.371"
    fill="#f03c2e"
  />
</g>
</g>
</g>
    <g id="arrow">
        <path fill-rule="evenodd" clip-rule="evenodd" d="M15.9993 2C16.2645 2 16.5189 2.10536 16.7064 2.29289C16.894 2.48043 16.9993 2.73478 16.9993 3V26.586L23.2913 20.292C23.4791 20.1042 23.7338 19.9987 23.9993 19.9987C24.2649 19.9987 24.5195 20.1042 24.7073 20.292C24.8951 20.4798 25.0006 20.7344 25.0006 21C25.0006 21.2656 24.8951 21.5202 24.7073 21.708L16.7073 29.708C16.6144 29.8011 16.5041 29.875 16.3826 29.9254C16.2611 29.9758 16.1308 30.0018 15.9993 30.0018C15.8678 30.0018 15.7375 29.9758 15.616 29.9254C15.4946 29.875 15.3842 29.8011 15.2913 29.708L7.29131 21.708C7.10354 21.5202 6.99805 21.2656 6.99805 21C6.99805 20.7344 7.10354 20.4798 7.29131 20.292C7.47908 20.1042 7.73376 19.9987 7.99931 19.9987C8.26486 19.9987 8.51954 20.1042 8.70731 20.292L14.9993 26.586V3C14.9993 2.73478 15.1047 2.48043 15.2922 2.29289C15.4797 2.10536 15.7341 2 15.9993 2Z" fill="#5222D0"/>
    </g>
</svg>
